<svg xmlns="http://www.w3.org/2000/svg" version="1.0" width="464.000000pt" height="260.000000pt" viewBox="0 0 464.000000 260.000000" preserveAspectRatio="xMidYMid meet">

<g transform="translate(0.000000,260.000000) scale(0.100000,-0.100000)" fill="#080173" stroke="none">
<path d="M520 2165 c0 -11 13 -15 53 -15 64 0 129 -28 154 -66 16 -26 18 -58 21 -361 l3 -333 140 0 139 0 0 381 0 381 128 -4 c105 -3 135 -7 177 -26 128 -59 178 -161 191 -397 6 -99 -5 -248 -22 -312 l-6 -23 135 0 135 0 20 48 c29 69 42 142 42 240 0 277 -151 445 -440 491 -38 6 -235 11 -467 11 -352 0 -403 -2 -403 -15z" fill="#080173"/>
<path d="M2032 2168 c3 -9 36 -15 104 -18 108 -5 139 -18 171 -67 16 -24 18 -62 21 -360 3 -283 5 -333 18 -333 12 0 14 46 14 313 l1 312 55 -135 c31 -74 88 -214 128 -310 l72 -175 142 -3 c78 -1 142 0 142 3 0 3 -57 143 -126 312 -70 170 -141 344 -159 388 l-33 80 -277 3 c-220 2 -276 0 -273 -10z" fill="#080173"/>
<path d="M3655 2168 c-3 -7 -41 -116 -86 -243 -44 -126 -104 -297 -134 -380 -42 -120 -50 -151 -38 -153 8 -2 16 -2 17 0 1 1 51 142 111 311 59 169 112 310 117 313 4 3 8 -137 8 -310 l0 -316 134 0 135 0 3 328 c3 290 5 331 21 359 26 48 59 65 137 71 50 3 70 9 70 18 0 20 -488 21 -495 2z" fill="#080173"/>
<path d="M1090 1282 c-24 -19 -25 -25 -25 -140 0 -104 3 -123 19 -141 24 -27 70 -27 96 -1 18 18 20 33 20 138 0 130 -6 148 -55 158 -22 4 -38 0 -55 -14z m69 -26 c8 -9 11 -52 9 -127 -3 -112 -3 -114 -27 -117 -40 -6 -51 21 -51 126 0 51 5 102 10 113 12 22 43 25 59 5z" fill="#080173"/>
<path d="M2688 1293 l-58 -4 0 -154 0 -155 60 0 c47 0 60 3 60 15 0 11 -12 15 -45 15 l-45 0 0 60 0 60 40 0 c22 0 40 5 40 10 0 6 -18 10 -40 10 l-40 0 0 60 0 60 45 0 c33 0 45 4 45 15 0 8 -1 14 -2 13 -2 -1 -29 -3 -60 -5z" fill="#080173"/>
<path d="M3340 1293 c-34 -12 -40 -36 -40 -158 0 -136 8 -155 67 -155 57 0 68 27 68 161 0 92 -3 122 -15 133 -18 17 -59 27 -80 19z m60 -49 c13 -33 13 -175 0 -209 -8 -21 -16 -26 -38 -23 l-27 3 -3 119 c-3 124 1 136 41 136 10 0 22 -11 27 -26z" fill="#080173"/>
<path d="M730 1135 c0 -131 2 -155 15 -155 12 0 15 14 15 70 l0 70 35 0 c24 0 35 5 35 15 0 10 -11 15 -35 15 l-35 0 0 60 0 60 45 0 c25 0 45 5 45 10 0 6 -27 10 -60 10 l-60 0 0 -155z" fill="#080173"/>
<path d="M890 1135 c0 -131 2 -155 15 -155 12 0 15 14 15 70 0 61 2 70 18 70 36 0 51 -23 54 -80 2 -39 7 -56 18 -58 12 -2 14 9 12 60 -2 36 -10 70 -18 79 -13 14 -13 18 1 29 21 17 20 103 -1 124 -10 10 -33 16 -65 16 l-49 0 0 -155z m89 121 c7 -8 11 -34 9 -58 -3 -40 -5 -43 -35 -46 l-33 -3 0 60 c0 58 1 61 24 61 13 0 29 -6 35 -14z" fill="#080173"/>
<path d="M1240 1136 c0 -132 2 -156 15 -156 13 0 15 21 16 128 l0 127 41 -127 c57 -176 68 -171 68 27 0 97 -4 155 -10 155 -6 0 -10 -42 -10 -107 0 -58 -3 -103 -7 -100 -3 4 -20 51 -37 104 -27 82 -36 99 -54 101 -22 3 -22 3 -22 -152z" fill="#080173"/>
<path d="M1410 1280 c0 -5 14 -10 30 -10 l30 0 0 -145 c0 -122 2 -145 15 -145 13 0 15 23 15 145 l0 145 30 0 c17 0 30 5 30 10 0 6 -32 10 -75 10 -43 0 -75 -4 -75 -10z" fill="#080173"/>
<path d="M1780 1135 l0 -155 65 0 c51 0 65 3 65 15 0 11 -12 15 -50 15 l-50 0 0 60 0 60 40 0 c51 0 53 18 3 22 l-38 3 -3 58 -3 57 51 0 c27 0 50 5 50 10 0 6 -28 10 -65 10 l-65 0 0 -155z" fill="#080173"/>
<path d="M1940 1135 c0 -131 2 -155 15 -155 12 0 15 21 16 128 l1 127 41 -127 c33 -100 45 -128 59 -128 16 0 18 13 18 155 0 130 -2 155 -15 155 -11 0 -15 -21 -17 -107 l-3 -108 -34 108 c-31 96 -37 107 -58 107 l-23 0 0 -155z" fill="#080173"/>
<path d="M2130 1134 l0 -156 56 4 c79 7 84 16 84 158 0 139 -6 150 -88 150 l-52 0 0 -156z m98 124 c8 -8 12 -49 12 -118 0 -115 -6 -130 -52 -130 l-28 0 0 130 0 130 28 0 c15 0 33 -5 40 -12z" fill="#080173"/>
<path d="M2450 1134 l0 -156 56 4 c79 7 84 16 84 158 0 139 -6 150 -88 150 l-52 0 0 -156z m98 124 c8 -8 12 -49 12 -118 0 -115 -6 -130 -52 -130 l-28 0 0 130 0 130 28 0 c15 0 33 -5 40 -12z" fill="#080173"/>
<path d="M2790 1278 c0 -6 12 -76 27 -155 25 -134 28 -143 49 -143 26 0 26 -1 53 150 12 63 24 125 26 138 4 15 1 22 -9 22 -16 0 -18 -7 -41 -145 -10 -55 -21 -103 -24 -108 -4 -4 -18 51 -31 123 -16 91 -27 130 -37 130 -7 0 -13 -5 -13 -12z" fill="#080173"/>
<path d="M2980 1135 l0 -155 65 0 c51 0 65 3 65 15 0 11 -12 15 -50 15 l-51 0 3 58 3 57 38 3 c20 2 37 7 37 12 0 5 -17 10 -37 12 l-38 3 0 55 0 55 48 3 c71 5 57 22 -18 22 l-65 0 0 -155z" fill="#080173"/>
<path d="M3150 1135 l0 -155 60 0 c47 0 60 3 60 15 0 11 -12 15 -45 15 l-45 0 0 140 c0 118 -2 140 -15 140 -13 0 -15 -24 -15 -155z" fill="#080173"/>
<path d="M3470 1135 c0 -129 2 -155 15 -155 10 0 15 16 17 62 l3 63 39 6 c49 8 66 30 66 89 0 69 -19 90 -86 90 l-54 0 0 -155z m94 119 c17 -16 21 -80 8 -102 -5 -7 -22 -14 -38 -15 -28 -2 -29 -1 -32 52 -2 29 -1 60 2 67 7 19 41 18 60 -2z" fill="#080173"/>
<path d="M3640 1135 l0 -155 65 0 c51 0 65 3 65 15 0 11 -12 15 -50 15 l-51 0 3 58 3 57 38 3 c20 2 37 7 37 12 0 5 -17 10 -37 12 l-38 3 0 55 0 55 48 3 c71 5 57 22 -18 22 l-65 0 0 -155z" fill="#080173"/>
<path d="M3810 1135 c0 -131 2 -155 15 -155 12 0 15 14 15 70 0 66 1 70 23 70 32 0 47 -18 47 -59 0 -52 10 -81 28 -81 12 0 14 11 9 61 -3 35 -12 68 -21 78 -15 16 -15 19 -1 31 18 15 21 110 3 128 -7 7 -36 12 -65 12 l-53 0 0 -155z m89 121 c7 -8 11 -34 9 -58 -3 -40 -5 -43 -35 -46 l-33 -3 0 60 c0 58 1 61 24 61 13 0 29 -6 35 -14z" fill="#080173"/>
<path d="M1590 1140 c0 -5 18 -10 40 -10 22 0 40 5 40 10 0 6 -18 10 -40 10 -22 0 -40 -4 -40 -10z" fill="#080173"/>
<path d="M748 738 c-5 -212 -22 -240 -158 -261 -39 -6 -70 -15 -70 -19 0 -4 171 -8 380 -8 209 0 380 4 380 9 0 4 -30 11 -66 14 -83 8 -133 32 -159 77 -17 30 -20 57 -24 188 l-3 152 -138 0 -138 0 -4 -152z" fill="#080173"/>
<path d="M2328 731 c-3 -144 -5 -162 -24 -188 -37 -49 -75 -64 -178 -70 -53 -3 -93 -10 -90 -14 7 -11 574 -12 574 -1 0 4 -36 13 -81 19 -147 19 -169 53 -169 266 0 120 -3 147 -14 147 -12 0 -15 -30 -18 -159z" fill="#080173"/>
<path d="M2896 708 c42 -101 82 -200 91 -220 14 -35 18 -38 57 -38 l42 0 31 93 c17 50 51 149 77 220 42 116 44 127 26 127 -14 0 -23 -13 -36 -55 -10 -30 -21 -55 -24 -55 -4 0 -16 24 -27 53 l-20 52 -146 3 -146 3 75 -183z" fill="#080173"/>
<path d="M3648 738 c-3 -170 -11 -198 -65 -234 -18 -12 -50 -24 -72 -28 -23 -3 -41 -11 -41 -16 0 -6 123 -10 340 -10 321 0 422 9 277 24 -71 8 -117 31 -144 73 -15 22 -19 54 -22 185 l-3 158 -133 0 -133 0 -4 -152z" fill="#080173"/>
</g>
</svg>